<svg xmlns="http://www.w3.org/2000/svg" width="24" height="24" viewBox="0 0 24 24" fill="none">
  <path d="M10.73 5.08A10.74 10.74 0 0 1 21.94 11.65A1 1 0 0 1 21.94 12.35A10.75 10.75 0 0 1 20.49 14.84M17.48 17.5A10.75 10.75 0 0 1 2.06 12.35A1 1 0 0 1 2.06 11.65A10.75 10.75 0 0 1 6.51 6.51" fill="currentColor" stroke="none" opacity="0.29"/>
  <path d="M2 2L22 22" stroke="currentColor" stroke-width="3.15" stroke-linecap="round"/>
  <path d="M14.08 14.16A3 3 0 0 1 9.84 9.92" fill="currentColor" stroke="none"/>
</svg>