<svg xmlns="http://www.w3.org/2000/svg" width="24" height="24" viewBox="0 0 24 24" fill="none">
  <path d="M3 12A9 9 0 1 1 21 12A9 9 0 1 1 3 12Z" fill="currentColor" stroke="none" opacity="0.29"/>
  <path d="M9.75 8.96L10.18 8.75L13.82 8.75L14.25 8.96L14.25 9.69L8.42 15.52L8.28 15.78L8.25 16L8.28 16.22L8.42 16.48L8.52 16.58L8.71 16.69L9 16.75L15 16.75L15.29 16.69L15.48 16.58L15.62 16.42L15.72 16.22L15.75 16.07L15.74 15.85L15.66 15.65L15.53 15.47L15.42 15.38L15.22 15.28L15 15.25L10.81 15.25L15.62 10.42L15.72 10.22L15.75 10.07L15.75 8.5L15.72 8.28L15.62 8.07L15.46 7.91L15.34 7.83L14.34 7.33L14.07 7.25L10 7.25L9.79 7.28L8.6 7.87L8.43 8.01L8.34 8.14L8.25 8.42L8.25 9.5L8.28 9.72L8.38 9.92L8.58 10.12L8.85 10.24L9.15 10.24L9.42 10.12L9.62 9.92L9.72 9.72L9.75 9.5L9.75 8.96Z" fill="currentColor" stroke="none"/>
</svg>