<svg xmlns="http://www.w3.org/2000/svg" width="24" height="24" viewBox="0 0 24 24" fill="none">
  <path d="M3 12A9 9 0 1 1 21 12A9 9 0 1 1 3 12Z" fill="currentColor" stroke="none" opacity="0.29"/>
  <path d="M14.25 12.75L14.25 15.04L13.82 15.25L10 15.25L9.78 15.28L9.65 15.34L9.47 15.47L9.34 15.65L9.26 15.85L9.25 16.07L9.28 16.22L9.38 16.42L9.52 16.58L9.71 16.69L10 16.75L14.07 16.75L14.34 16.67L15.34 16.17L15.52 16.04L15.62 15.93L15.72 15.72L15.75 15.5L15.75 8.42L15.69 8.21L15.62 8.07L15.4 7.87L14.34 7.33L14.07 7.25L9.93 7.25L9.66 7.33L8.66 7.83L8.43 8.01L8.31 8.21L8.25 8.5L8.25 12L8.31 12.29L8.38 12.42L8.52 12.58L8.78 12.72L9 12.75L14.25 12.75ZM9.75 11.25L9.75 8.96L10.18 8.75L13.82 8.75L14.25 8.96L14.25 11.25L9.75 11.25Z" fill="currentColor" stroke="none"/>
</svg>