<svg xmlns="http://www.w3.org/2000/svg" width="24" height="24" viewBox="0 0 24 24" fill="none">
  <path d="M3 12A9 9 0 1 1 21 12A9 9 0 1 1 3 12Z M14.25 8.96L14.25 10.19L13.62 10.82L11.82 11.27L11.61 11.36L11.5 11.44L11.36 11.61L11.29 11.75L11.25 11.96L11.27 12.18L11.36 12.39L11.44 12.5L11.61 12.64L11.82 12.73L13.62 13.18L14.25 13.81L14.25 15.04L13.82 15.25L9 15.25L8.78 15.28L8.65 15.34L8.47 15.47L8.34 15.65L8.26 15.85L8.25 16.07L8.28 16.22L8.38 16.42L8.52 16.58L8.71 16.69L9 16.75L14.07 16.75L14.34 16.67L15.34 16.17L15.57 15.99L15.69 15.79L15.75 15.58L15.75 13.5L15.72 13.28L15.58 13.02L14.56 12L15.58 10.98L15.72 10.72L15.75 10.5L15.75 8.5L15.69 8.21L15.57 8.01L15.46 7.91L14.34 7.33L14.07 7.25L9 7.25L8.71 7.31L8.52 7.42L8.42 7.52L8.31 7.71L8.26 7.85L8.25 8.07L8.28 8.22L8.38 8.42L8.47 8.53L8.65 8.66L8.85 8.74L13.82 8.75L14.25 8.96Z" fill="currentColor" stroke="none" fill-rule="evenodd"/>
</svg>