<svg xmlns="http://www.w3.org/2000/svg" width="24" height="24" viewBox="0 0 24 24" fill="none">
  <path d="M3 12A9 9 0 1 1 21 12A9 9 0 1 1 3 12Z M15.57 11.99L15.69 11.79L15.75 11.58L15.75 8.5L15.72 8.28L15.66 8.14L15.57 8.01L15.4 7.87L14.27 7.3L14 7.25L9.93 7.25L9.66 7.33L8.66 7.83L8.54 7.91L8.38 8.07L8.28 8.28L8.25 8.5L8.25 11.58L8.31 11.79L8.44 12L8.31 12.21L8.25 12.5L8.25 15.5L8.28 15.72L8.34 15.86L8.48 16.04L8.66 16.17L9.73 16.7L10 16.75L14.07 16.75L14.34 16.67L15.34 16.17L15.52 16.04L15.62 15.93L15.69 15.79L15.75 15.58L15.75 12.5L15.72 12.28L15.57 11.99ZM13.82 12.75L14.25 12.96L14.25 15.04L13.82 15.25L10.18 15.25L9.75 15.04L9.75 12.96L10.18 12.75L13.82 12.75ZM9.75 11.04L9.75 8.96L10.18 8.75L13.82 8.75L14.25 8.96L14.25 11.04L13.82 11.25L10.18 11.25L9.75 11.04Z" fill="currentColor" stroke="none" fill-rule="evenodd"/>
</svg>