<svg xmlns="http://www.w3.org/2000/svg" width="24" height="24" viewBox="0 0 24 24" fill="none">
  <path d="M3 12A9 9 0 1 1 21 12A9 9 0 1 1 3 12Z M9 7.25L8.71 7.31L8.47 7.47L8.31 7.71L8.25 7.93L8.25 12L8.28 12.22L8.38 12.42L8.58 12.62L8.78 12.72L8.93 12.75L13.82 12.75L14.25 12.96L14.25 15.04L13.82 15.25L8.85 15.26L8.71 15.31L8.52 15.42L8.38 15.58L8.31 15.71L8.25 15.93L8.25 16.07L8.28 16.22L8.38 16.42L8.58 16.62L8.71 16.69L8.93 16.75L14 16.75L14.34 16.67L15.46 16.09L15.57 15.99L15.69 15.79L15.75 15.5L15.75 12.42L15.69 12.21L15.57 12.01L15.34 11.83L14.34 11.33L14.07 11.25L9.75 11.25L9.75 8.75L15.15 8.74L15.29 8.69L15.48 8.58L15.62 8.42L15.69 8.29L15.75 8.07L15.75 7.93L15.69 7.71L15.62 7.58L15.42 7.38L15.22 7.28L15.07 7.25L9 7.25Z" fill="currentColor" stroke="none" fill-rule="evenodd"/>
</svg>