<svg xmlns="http://www.w3.org/2000/svg" width="24" height="24" viewBox="0 0 24 24" fill="none" stroke="currentColor" stroke-width="1.07" stroke-linecap="round" stroke-linejoin="round">
  <path d="M10.5 2A10 10 0 0 1 13.5 2L14.5 5.5A7 7 0 0 1 16.5 6.5L19.5 5.5A10 10 0 0 1 21.5 8.5L19 11A7 7 0 0 1 19 13L21.5 15.5A10 10 0 0 1 19.5 18.5L16.5 17.5A7 7 0 0 1 14.5 18.5L13.5 22A10 10 0 0 1 10.5 22L9.5 18.5A7 7 0 0 1 7.5 17.5L4.5 18.5A10 10 0 0 1 2.5 15.5L5 13A7 7 0 0 1 5 11L2.5 8.5A10 10 0 0 1 4.5 5.5L7.5 6.5A7 7 0 0 1 9.5 5.5L10.5 2ZM9 12A3 3 0 1 1 15 12A3 3 0 1 1 9 12Z" stroke-width="1"/>
</svg>